HIERARCHY
ROOT Hips
{
	OFFSET 0.000000 0.000000 0.000000
	CHANNELS 6 Xposition Yposition Zposition Zrotation Yrotation Xrotation 
	JOINT LHipJoint
	{
		OFFSET 0.000000 0.000000 0.000000
		CHANNELS 3 Zrotation Yrotation Xrotation
		JOINT LeftUpLeg
		{
			OFFSET 1.363060 -1.794630 0.839290
			CHANNELS 3 Zrotation Yrotation Xrotation
			JOINT LeftLeg
			{
				OFFSET 2.448110 -6.726130 0.000000
				CHANNELS 3 Zrotation Yrotation Xrotation
				JOINT LeftFoot
				{
					OFFSET 2.562200 -7.039590 0.000000
					CHANNELS 3 Zrotation Yrotation Xrotation
					JOINT LeftToeBase
					{
						OFFSET 0.157640 -0.433110 2.322550
						CHANNELS 3 Zrotation Yrotation Xrotation
						End Site
						{
							OFFSET 0.000000 0.000000 0.000000
						}
					}
				}
			}
		}
	}
	JOINT RHipJoint
	{
		OFFSET 0.000000 0.000000 0.000000
		CHANNELS 3 Zrotation Yrotation Xrotation
		JOINT RightUpLeg
		{
			OFFSET -1.305520 -1.794630 0.839290
			CHANNELS 3 Zrotation Yrotation Xrotation
			JOINT RightLeg
			{
				OFFSET -2.542530 -6.985550 0.000000
				CHANNELS 3 Zrotation Yrotation Xrotation
				JOINT RightFoot
				{
					OFFSET -2.568260 -7.056230 0.000000
					CHANNELS 3 Zrotation Yrotation Xrotation
					JOINT RightToeBase
					{
						OFFSET -0.164730 -0.452590 2.363150
						CHANNELS 3 Zrotation Yrotation Xrotation
						End Site
						{
							OFFSET 0.000000 0.000000 0.000000
						}
					}
				}
			}
		}
	}
	JOINT LowerBack
	{
		OFFSET 0.000000 0.000000 0.000000
		CHANNELS 3 Zrotation Yrotation Xrotation
		JOINT Spine
		{
			OFFSET 0.028270 2.035590 -0.193380
			CHANNELS 3 Zrotation Yrotation Xrotation
			JOINT Spine1
			{
				OFFSET 0.056720 2.048850 -0.042750
				CHANNELS 3 Zrotation Yrotation Xrotation
				JOINT Neck
				{
					OFFSET 0.000000 0.000000 0.000000
					CHANNELS 3 Zrotation Yrotation Xrotation
					JOINT Neck1
					{
						OFFSET -0.054170 1.746240 0.172020
						CHANNELS 3 Zrotation Yrotation Xrotation
						JOINT Head
						{
							OFFSET 0.104070 1.761360 -0.123970
							CHANNELS 3 Zrotation Yrotation Xrotation
							End Site
							{
								OFFSET 0.000000 0.000000 0.000000
							}
						}
					}
				}
				JOINT LeftShoulder
				{
					OFFSET 0.000000 0.000000 0.000000
					CHANNELS 3 Zrotation Yrotation Xrotation
					JOINT LeftArm
					{
						OFFSET 3.362410 1.200890 -0.311210
						CHANNELS 3 Zrotation Yrotation Xrotation
						JOINT LeftForeArm
						{
							OFFSET 4.983000 -0.000000 -0.000000
							CHANNELS 3 Zrotation Yrotation Xrotation
							JOINT LeftHand
							{
								OFFSET 3.483560 -0.000000 -0.000000
								CHANNELS 3 Zrotation Yrotation Xrotation
								JOINT LeftFingerBase
								{
									OFFSET 0.000000 0.000000 0.000000
									CHANNELS 3 Zrotation Yrotation Xrotation
									JOINT LeftHandIndex1
									{
										OFFSET 0.715260 -0.000000 -0.000000
										CHANNELS 3 Zrotation Yrotation Xrotation
										End Site
										{
											OFFSET 0.000000 0.000000 0.000000
										}
									}
								}
								JOINT LThumb
								{
									OFFSET 0.000000 0.000000 0.000000
									CHANNELS 3 Zrotation Yrotation Xrotation
									End Site
									{
										OFFSET 0.000000 0.000000 0.000000
									}
								}
							}
						}
					}
				}
				JOINT RightShoulder
				{
					OFFSET 0.000000 0.000000 0.000000
					CHANNELS 3 Zrotation Yrotation Xrotation
					JOINT RightArm
					{
						OFFSET -3.136600 1.374050 -0.404650
						CHANNELS 3 Zrotation Yrotation Xrotation
						JOINT RightForeArm
						{
							OFFSET -5.241900 -0.000000 -0.000000
							CHANNELS 3 Zrotation Yrotation Xrotation
							JOINT RightHand
							{
								OFFSET -3.444170 -0.000000 -0.000000
								CHANNELS 3 Zrotation Yrotation Xrotation
								JOINT RightFingerBase
								{
									OFFSET 0.000000 0.000000 0.000000
									CHANNELS 3 Zrotation Yrotation Xrotation
									JOINT RightHandIndex1
									{
										OFFSET -0.622530 -0.000000 -0.000000
										CHANNELS 3 Zrotation Yrotation Xrotation
										End Site
										{
											OFFSET 0.000000 0.000000 0.000000
										}
									}
								}
								JOINT RThumb
								{
									OFFSET 0.000000 0.000000 0.000000
									CHANNELS 3 Zrotation Yrotation Xrotation
									End Site
									{
										OFFSET 0.000000 0.000000 0.000000
									}
								}
							}
						}
					}
				}
			}
		}
	}
}
MOTION
Frames: 8
Frame Time: 0.008333
8.674416 17.669638 -21.283835 -1.643167 -13.529472 9.335175 -2.067385 -3.367716 -4.770046 -8.195610 -0.556360 -33.840545 -2.117743 10.406187 21.573329 -0.527427 10.345341 23.791155 0.160300 -2.579700 -7.110700 2.930876 -2.531863 5.831480 11.400073 7.966118 1.941017 -0.040392 -9.069799 28.263017 -2.941706 -7.130090 45.558259 -0.009700 -0.637500 1.751800 -0.056870 6.635202 -0.121860 0.254840 8.406584 -4.002858 -3.354219 4.928981 -2.247250 -3.409776 -2.684498 -10.351086 8.669391 -3.960470 10.293960 3.182300 -1.534400 6.095100 1.932471 -7.025259 0.142208 -91.365775 24.732331 -8.548081 -0.439079 -3.636579 -0.279179 -0.872576 1.656618 23.975337 18.348247 -7.180732 -2.990200 -7.125000 0.000000 0.000000 -5.090200 21.146200 2.922500 -4.551957 8.988136 0.842149 80.089775 2.977867 29.095291 -56.699162 51.675002 -35.907286 0.916461 -1.516637 -3.672720 -179.485104 71.484048 -0.355900 7.125000 0.000000 0.000000 -152.954200 -48.036800 -2.176400
8.681055 17.674885 -21.148276 -1.689737 -13.315454 9.148471 -2.058557 -3.352764 -4.658969 -8.343279 -0.617345 -33.683640 -2.036768 10.555440 22.153610 -0.363241 9.752820 23.656023 0.168032 -2.639964 -7.277950 2.872761 -2.401309 5.625946 11.710497 7.897551 1.607317 -0.458536 -9.556961 29.661091 -2.983317 -7.172855 45.979226 -0.066872 0.757579 -2.089285 0.063935 6.574623 0.111125 0.250217 8.343733 -3.997395 -3.506113 4.872832 -2.238481 -3.216109 -2.728116 -10.523111 8.594805 -4.041292 10.297518 3.089982 -1.563736 6.149975 1.911322 -7.071998 0.148268 -91.141132 24.233656 -8.597809 -0.583057 -3.407187 -0.273678 -0.893787 1.677986 23.930023 18.473692 -7.073832 -2.981062 -7.125000 0.000000 0.000000 -4.979372 21.236784 2.848458 -4.550370 8.999061 0.832943 80.374462 2.560967 29.024134 -56.416858 51.654640 -35.646267 0.932784 -1.495709 -4.648636 -11.946433 71.495467 -1.440566 7.125000 0.000000 0.000000 -153.318692 -48.116372 -2.197628
8.687694 17.680131 -21.012717 -1.736307 -13.101436 8.961766 -2.049729 -3.337812 -4.547891 -8.490949 -0.678329 -33.526736 -1.955793 10.704694 22.733891 -0.199054 9.160299 23.520892 0.175764 -2.700229 -7.445200 2.814645 -2.270756 5.420412 12.020921 7.828984 1.273618 -0.876681 -10.044122 31.059166 -3.024928 -7.215620 46.400193 -0.124043 2.152659 -5.930369 0.184740 6.514044 0.344110 0.245593 8.280883 -3.991933 -3.658008 4.816683 -2.229712 -3.022442 -2.771734 -10.695137 8.520219 -4.122114 10.301076 2.997664 -1.593071 6.204851 1.890173 -7.118737 0.154327 -90.916488 23.734981 -8.647536 -0.727035 -3.177795 -0.268177 -0.914998 1.699353 23.884709 18.599136 -6.966933 -2.971924 -7.125000 0.000000 0.000000 -4.868543 21.327368 2.774416 -4.548783 9.009986 0.823738 80.659149 2.144067 28.952977 -56.134554 51.634279 -35.385248 0.949108 -1.474781 -5.624552 155.592238 71.506886 -2.525232 7.125000 0.000000 0.000000 -153.683184 -48.195943 -2.218857
8.693591 17.682457 -20.879430 -1.702610 -12.981058 8.784189 -2.066691 -3.295371 -4.419720 -8.671462 -0.766029 -33.306575 -1.887955 10.813367 23.179494 -0.138202 8.822735 23.265166 0.115313 -2.025607 -5.581701 2.750295 -2.201566 5.197962 12.195347 7.844987 1.007128 -1.514897 -10.610458 32.462958 -2.777193 -8.836888 46.490210 -0.084133 1.705713 -4.696771 0.176736 6.429849 0.532850 0.242595 8.180618 -3.983751 -3.758550 4.747509 -2.172196 -2.785971 -2.766002 -10.984366 8.432152 -4.144201 10.360754 2.880102 -1.587219 6.317561 1.880871 -7.164487 0.152059 -90.731817 23.167150 -8.844061 -0.851520 -2.975885 -0.265677 -0.920413 1.723452 23.792019 18.654002 -6.993240 -3.000774 -7.125000 0.000000 0.000000 -4.819649 21.271478 2.752324 -4.551768 9.030052 0.809366 81.063119 1.769347 28.886403 -55.872938 51.622134 -35.134269 0.956212 -1.470381 -6.046669 177.547365 71.513933 -3.121246 7.125000 0.000000 0.000000 -153.886388 -48.238906 -2.228681
8.699373 17.684331 -20.746495 -1.656500 -12.875160 8.608024 -2.087641 -3.248679 -4.288905 -8.857055 -0.857860 -33.076633 -1.822148 10.915765 23.604271 -0.093329 8.524597 22.990791 0.044317 -1.237342 -3.404168 2.684980 -2.141866 4.972896 12.348742 7.874068 0.751032 -2.187145 -11.189037 33.867634 -2.484713 -10.702255 46.529048 -0.029211 0.973917 -2.678428 0.148812 6.342002 0.714749 0.239848 8.074568 -3.975148 -3.851151 4.676320 -2.107140 -2.542880 -2.752639 -11.291718 8.342001 -4.157206 10.429109 2.758636 -1.575925 6.439214 1.873400 -7.210083 0.148503 -90.553327 22.588626 -9.063287 -0.972991 -2.778224 -0.263641 -0.923385 1.747972 23.692002 18.697952 -7.040146 -3.035499 -7.125000 0.000000 0.000000 -4.780331 21.192938 2.738266 -4.555461 9.051532 0.794196 81.485535 1.401150 28.820538 -55.614522 51.611259 -34.884842 0.961891 -1.468538 -6.383146 176.989573 71.520304 -3.641694 7.125000 0.000000 0.000000 -154.064651 -48.276208 -2.236741
8.704332 17.693613 -20.613638 -1.404339 -12.846537 8.412287 -2.138575 -3.196125 -4.137403 -9.230865 -0.921722 -32.822742 -1.788747 10.980924 23.957970 -0.028584 8.160035 22.665554 0.017615 -0.555026 -1.525883 2.608707 -2.105076 4.745262 12.264613 7.871662 0.399915 -2.962668 -11.764306 35.274925 -2.054521 -13.161325 46.295230 -0.037693 -0.123208 0.341070 -0.131704 6.268070 0.853089 0.229290 7.977181 -3.963715 -3.827254 4.615840 -2.060945 -2.421119 -2.761440 -11.501008 8.248783 -4.179677 10.480457 2.655628 -1.578664 6.526490 1.872032 -7.250460 0.139589 -90.484728 22.171358 -9.310413 -0.939044 -2.804341 -0.266582 -0.914164 1.739606 23.617164 18.582165 -6.966908 -2.988052 -7.125000 0.000000 0.000000 -4.873792 21.279083 2.782190 -4.563363 9.070830 0.786116 81.906783 1.056386 28.601891 -55.094844 51.520154 -34.456701 0.965523 -1.490329 -6.246715 54.413402 71.710225 -2.767800 7.125000 0.000000 0.000000 -153.855661 -48.051625 -2.100255
8.708990 17.705606 -20.480809 -1.076794 -12.846185 8.209390 -2.200479 -3.141426 -3.978334 -9.673535 -0.975351 -32.560091 -1.767202 11.032459 24.285666 0.043432 7.771171 22.321707 0.007118 0.088529 0.242920 2.528425 -2.076668 4.516689 12.093585 7.857737 0.014035 -3.775973 -12.338364 36.683172 -1.573946 -15.837604 45.961660 -0.069372 -1.353990 3.726844 -0.504633 6.199229 0.975493 0.215875 7.882964 -3.951247 -3.760736 4.559276 -2.021650 -2.343747 -2.778350 -11.674421 8.154444 -4.205610 10.525582 2.559374 -1.586537 6.601187 1.872897 -7.288928 0.128714 -90.456333 21.813087 -9.567746 -0.848236 -2.912329 -0.271342 -0.900481 1.719208 23.551539 18.407936 -6.849715 -2.910542 -7.125000 0.000000 0.000000 -5.015831 21.425480 2.847328 -4.572805 9.089332 0.780632 82.327603 0.720196 28.327347 -54.479584 51.399697 -33.963176 0.968406 -1.520767 -5.937269 -112.803639 71.967298 -1.383779 7.125000 0.000000 0.000000 -153.504993 -47.731230 -1.910886
8.713263 17.722050 -20.348942 -0.731776 -12.826709 7.975567 -2.268931 -3.088108 -3.812824 -10.153008 -0.985977 -32.257599 -1.756536 11.057147 24.560115 0.119453 7.368367 21.943408 0.002283 0.297621 0.817694 2.441246 -2.030761 4.293738 11.929041 7.806590 -0.422532 -4.556277 -12.867182 38.122808 -1.119256 -18.142041 45.521760 -0.108844 -2.091018 5.758658 -0.883635 6.131084 1.140932 0.199499 7.788565 -3.936611 -3.693495 4.501257 -2.040668 -2.331540 -2.756323 -11.655258 8.123779 -4.174118 10.471572 2.528213 -1.574141 6.559154 1.866819 -7.330465 0.128138 -90.457179 21.523716 -9.825408 -0.719787 -3.069551 -0.279183 -0.878763 1.701032 23.535362 18.237961 -6.803840 -2.860337 -7.125000 0.000000 0.000000 -5.158991 21.492374 2.921690 -4.589392 9.101201 0.789934 82.732021 0.360996 28.246698 -54.027263 51.322115 -33.558301 0.970440 -1.517923 -6.328928 -80.371443 72.047417 -2.041942 7.125000 0.000000 0.000000 -153.753990 -47.709111 -1.874551
